<?xml version="1.0" encoding="UTF-8"?>
<!--Generator: Apple Native CoreSVG 232.5-->
<!DOCTYPE svg
PUBLIC "-//W3C//DTD SVG 1.1//EN"
       "http://www.w3.org/Graphics/SVG/1.1/DTD/svg11.dtd">
<svg version="1.1" xmlns="http://www.w3.org/2000/svg" xmlns:xlink="http://www.w3.org/1999/xlink" width="48.6621" height="30.6299">
 <g>
  <rect height="30.6299" opacity="0" width="48.6621" x="0" y="0"/>
  <path d="M8.54004 30.6152L29.0332 30.6152C32.8857 30.6152 35.127 28.4326 35.127 24.5947L35.127 6.00586C35.127 2.18262 33.0322 0 29.1797 0L8.54004 0C4.81934 0 2.44629 2.18262 2.44629 6.00586L2.44629 24.5947C2.44629 28.4326 4.6875 30.6152 8.54004 30.6152ZM37.4561 20.874L44.3115 26.7041C44.9707 27.2607 45.6738 27.6123 46.377 27.6123C47.7539 27.6123 48.6621 26.6162 48.6621 25.1074L48.6621 5.49316C48.6621 3.99902 47.7539 3.00293 46.377 3.00293C45.6738 3.00293 44.9707 3.35449 44.3115 3.91113L37.4561 9.71191Z" fill="#000000"/>
 </g>
</svg>
