<?xml version="1.0" encoding="UTF-8"?>
<!--Generator: Apple Native CoreSVG 232.5-->
<!DOCTYPE svg
PUBLIC "-//W3C//DTD SVG 1.1//EN"
       "http://www.w3.org/Graphics/SVG/1.1/DTD/svg11.dtd">
<svg version="1.1" xmlns="http://www.w3.org/2000/svg" xmlns:xlink="http://www.w3.org/1999/xlink" width="35.6982" height="39.2139">
 <g>
  <rect height="39.2139" opacity="0" width="35.6982" x="0" y="0"/>
  <path d="M2.43164 32.0508L32.8857 32.0508C34.4092 32.0508 35.332 31.2451 35.332 30.0439C35.332 28.1396 33.457 26.4697 31.8604 24.7998C30.4248 23.2617 30.2051 20.127 29.9561 17.4463C29.707 10.7666 27.7881 6.0498 22.9102 4.39453C22.2656 1.88965 20.3467 0 17.666 0C14.9854 0 13.0664 1.88965 12.4219 4.39453C7.54395 6.0498 5.625 10.7666 5.37598 17.4463C5.12695 20.127 4.90723 23.2617 3.47168 24.7998C1.86035 26.4697 0 28.1396 0 30.0439C0 31.2451 0.922852 32.0508 2.43164 32.0508ZM17.666 39.2139C20.7861 39.2139 23.0127 36.958 23.3203 34.3799L12.0117 34.3799C12.3047 36.958 14.5459 39.2139 17.666 39.2139Z" fill="#000000"/>
 </g>
</svg>
