<?xml version="1.0" encoding="UTF-8"?>
<!--Generator: Apple Native CoreSVG 232.5-->
<!DOCTYPE svg
PUBLIC "-//W3C//DTD SVG 1.1//EN"
       "http://www.w3.org/Graphics/SVG/1.1/DTD/svg11.dtd">
<svg version="1.1" xmlns="http://www.w3.org/2000/svg" xmlns:xlink="http://www.w3.org/1999/xlink" width="38.5254" height="38.1885">
 <g>
  <rect height="38.1885" opacity="0" width="38.5254" x="0" y="0"/>
  <path d="M19.0723 38.1592C29.5166 38.1592 38.1592 29.5166 38.1592 19.0869C38.1592 8.64258 29.502 0 19.0576 0C8.62793 0 0 8.64258 0 19.0869C0 29.5166 8.64258 38.1592 19.0723 38.1592ZM19.0723 35.4346C10.0195 35.4346 2.73926 28.1396 2.73926 19.0869C2.73926 10.0195 10.0049 2.73926 19.0576 2.73926C28.125 2.73926 35.4199 10.0195 35.4199 19.0869C35.4199 28.1396 28.1396 35.4346 19.0723 35.4346Z" fill="#000000"/>
  <path d="M8.93555 21.0059L19.0576 21.0059C19.7021 21.0059 20.2002 20.5078 20.2002 19.8633L20.2002 6.79688C20.2002 6.16699 19.7021 5.66895 19.0576 5.66895C18.4424 5.66895 17.9297 6.16699 17.9297 6.79688L17.9297 18.7354L8.93555 18.7354C8.29102 18.7354 7.80762 19.2334 7.80762 19.8633C7.80762 20.5078 8.29102 21.0059 8.93555 21.0059Z" fill="#000000"/>
 </g>
</svg>
