<?xml version="1.0" encoding="UTF-8"?>
<!--Generator: Apple Native CoreSVG 232.5-->
<!DOCTYPE svg
PUBLIC "-//W3C//DTD SVG 1.1//EN"
       "http://www.w3.org/Graphics/SVG/1.1/DTD/svg11.dtd">
<svg version="1.1" xmlns="http://www.w3.org/2000/svg" xmlns:xlink="http://www.w3.org/1999/xlink" width="38.5254" height="38.1885">
 <g>
  <rect height="38.1885" opacity="0" width="38.5254" x="0" y="0"/>
  <path d="M8.93555 21.0059C8.29102 21.0059 7.80762 20.5078 7.80762 19.8633C7.80762 19.2334 8.29102 18.7354 8.93555 18.7354L17.9297 18.7354L17.9297 6.79688C17.9297 6.16699 18.4424 5.66895 19.0576 5.66895C19.7021 5.66895 20.2002 6.16699 20.2002 6.79688L20.2002 19.8633C20.2002 20.5078 19.7021 21.0059 19.0576 21.0059ZM19.0723 38.1592C29.5166 38.1592 38.1592 29.5166 38.1592 19.0869C38.1592 8.64258 29.502 0 19.0576 0C8.62793 0 0 8.64258 0 19.0869C0 29.5166 8.64258 38.1592 19.0723 38.1592Z" fill="#000000"/>
 </g>
</svg>
