<?xml version="1.0" encoding="UTF-8"?>
<!--Generator: Apple Native CoreSVG 232.5-->
<!DOCTYPE svg
PUBLIC "-//W3C//DTD SVG 1.1//EN"
       "http://www.w3.org/Graphics/SVG/1.1/DTD/svg11.dtd">
<svg version="1.1" xmlns="http://www.w3.org/2000/svg" xmlns:xlink="http://www.w3.org/1999/xlink" width="38.042" height="32.2705">
 <g>
  <rect height="32.2705" opacity="0" width="38.042" x="0" y="0"/>
  <path d="M1.23047 2.44629L36.4307 2.44629C37.1191 2.44629 37.6758 1.91895 37.6758 1.21582C37.6758 0.527344 37.1191 0 36.4307 0L1.23047 0C0.527344 0 0 0.527344 0 1.21582C0 1.91895 0.527344 2.44629 1.23047 2.44629ZM1.23047 12.3633L36.4307 12.3633C37.1191 12.3633 37.6758 11.8213 37.6758 11.1328C37.6758 10.4443 37.1191 9.90234 36.4307 9.90234L1.23047 9.90234C0.527344 9.90234 0 10.4443 0 11.1328C0 11.8213 0.527344 12.3633 1.23047 12.3633ZM1.23047 22.2656L36.4307 22.2656C37.1191 22.2656 37.6758 21.7383 37.6758 21.0498C37.6758 20.3467 37.1191 19.8193 36.4307 19.8193L1.23047 19.8193C0.527344 19.8193 0 20.3467 0 21.0498C0 21.7383 0.527344 22.2656 1.23047 22.2656ZM1.23047 32.1826L21.0205 32.1826C21.709 32.1826 22.2656 31.6406 22.2656 30.9521C22.2656 30.2637 21.709 29.7363 21.0205 29.7363L1.23047 29.7363C0.527344 29.7363 0 30.2637 0 30.9521C0 31.6406 0.527344 32.1826 1.23047 32.1826Z" fill="#000000"/>
 </g>
</svg>
