<?xml version="1.0" encoding="UTF-8"?>
<!--Generator: Apple Native CoreSVG 232.5-->
<!DOCTYPE svg
PUBLIC "-//W3C//DTD SVG 1.1//EN"
       "http://www.w3.org/Graphics/SVG/1.1/DTD/svg11.dtd">
<svg version="1.1" xmlns="http://www.w3.org/2000/svg" xmlns:xlink="http://www.w3.org/1999/xlink" width="38.877" height="36.665">
 <g>
  <rect height="36.665" opacity="0" width="38.877" x="0" y="0"/>
  <path d="M0 33.9844C0 35.2441 0.732422 35.9619 1.96289 35.9619C2.40234 35.9619 2.85645 35.8301 3.39844 35.5225L11.6162 31.0547L11.6162 0.234375C11.2646 0.380859 10.8838 0.571289 10.5176 0.776367L1.52344 6.02051C0.498047 6.5918 0 7.38281 0 8.55469ZM13.9453 30.8057L23.4229 36.2402C23.7158 36.4014 24.0088 36.5332 24.2871 36.6064L24.2871 6.1084L15.0439 0.454102C14.707 0.249023 14.3262 0.0878906 13.9453 0ZM26.6309 36.5479C26.8359 36.4746 27.0557 36.3867 27.2607 36.2549L37.002 30.6738C38.0127 30.0879 38.5107 29.3115 38.5107 28.125L38.5107 2.68066C38.5107 1.40625 37.7637 0.703125 36.5625 0.703125C36.123 0.703125 35.6689 0.834961 35.127 1.14258L26.6309 5.83008Z" fill="#000000"/>
 </g>
</svg>
