<?xml version="1.0" encoding="UTF-8"?>
<!--Generator: Apple Native CoreSVG 232.5-->
<!DOCTYPE svg
PUBLIC "-//W3C//DTD SVG 1.1//EN"
       "http://www.w3.org/Graphics/SVG/1.1/DTD/svg11.dtd">
<svg version="1.1" xmlns="http://www.w3.org/2000/svg" xmlns:xlink="http://www.w3.org/1999/xlink" width="38.5254" height="38.1885">
 <g>
  <rect height="38.1885" opacity="0" width="38.5254" x="0" y="0"/>
  <path d="M19.0723 38.1592C29.5166 38.1592 38.1592 29.5166 38.1592 19.0869C38.1592 8.64258 29.502 0 19.0576 0C8.62793 0 0 8.64258 0 19.0869C0 29.5166 8.64258 38.1592 19.0723 38.1592ZM19.0723 35.4346C10.0195 35.4346 2.73926 28.1396 2.73926 19.0869C2.73926 10.0195 10.0049 2.73926 19.0576 2.73926C28.125 2.73926 35.4199 10.0195 35.4199 19.0869C35.4199 28.1396 28.1396 35.4346 19.0723 35.4346Z" fill="#000000"/>
  <path d="M14.8389 28.3887C15.2783 28.8135 16.1133 28.7988 16.582 28.3447L24.6387 20.6689C25.5615 19.8193 25.5615 18.3691 24.6387 17.5049L16.582 9.8291C16.0693 9.3457 15.3223 9.33105 14.8535 9.78516C14.3555 10.2539 14.3408 11.0596 14.8389 11.5137L22.793 19.0723L14.8389 26.6455C14.3555 27.1143 14.3555 27.9053 14.8389 28.3887Z" fill="#000000"/>
 </g>
</svg>
