<?xml version="1.0" encoding="UTF-8"?>
<!--Generator: Apple Native CoreSVG 232.5-->
<!DOCTYPE svg
PUBLIC "-//W3C//DTD SVG 1.1//EN"
       "http://www.w3.org/Graphics/SVG/1.1/DTD/svg11.dtd">
<svg version="1.1" xmlns="http://www.w3.org/2000/svg" xmlns:xlink="http://www.w3.org/1999/xlink" width="38.5254" height="38.1885">
 <g>
  <rect height="38.1885" opacity="0" width="38.5254" x="0" y="0"/>
  <path d="M19.0723 38.1592C29.5166 38.1592 38.1592 29.5166 38.1592 19.0869C38.1592 8.64258 29.502 0 19.0576 0C8.62793 0 0 8.64258 0 19.0869C0 29.5166 8.64258 38.1592 19.0723 38.1592ZM19.0723 35.4346C10.0195 35.4346 2.73926 28.1396 2.73926 19.0869C2.73926 10.0195 10.0049 2.73926 19.0576 2.73926C28.125 2.73926 35.4199 10.0195 35.4199 19.0869C35.4199 28.1396 28.1396 35.4346 19.0723 35.4346Z" fill="#000000"/>
  <path d="M22.7344 28.3887C23.2324 27.9053 23.2178 27.1143 22.7344 26.6455L14.7803 19.0723L22.7344 11.5137C23.2324 11.0596 23.2178 10.2539 22.7197 9.78516C22.251 9.33105 21.5039 9.3457 21.0059 9.8291L12.9346 17.5049C12.0117 18.3691 12.0264 19.8193 12.9346 20.6689L21.0059 28.3447C21.46 28.7988 22.3096 28.8135 22.7344 28.3887Z" fill="#000000"/>
 </g>
</svg>
